<svg width="150px" height="150px" viewBox="0 0 150 150" version="1.1" id="svg5" xmlns="http://www.w3.org/2000/svg">
  <g id="layer7" style="display:inline">
    <path id="path4444" class="leftMoon" style="display:inline;fill:#16346e;fill-opacity:1;stroke:none;stroke-width:.227638" d="M45.139317 48.218929a10.670438 10.598856 0 0 0-10.670149 10.598835 10.670438 10.598856 0 0 0 6.036324 9.547219 32.573719 32.177185 0 0 0-17.509526 28.46183 32.573719 32.177185 0 0 0 32.573722 32.177367 32.573719 32.177185 0 0 0 12.058695-2.29288 27.240219 29.179713 0 0 1-2.270662.11007 27.240219 29.179713 0 0 1-27.240196-29.17962 27.240219 29.179713 0 0 1 27.240196-29.179614 27.240219 29.179713 0 0 1 7.607806 1.162203 32.573719 32.177185 0 0 0-17.395839-4.974892 32.573719 32.177185 0 0 0-1.591117.102839 10.670438 10.598856 0 0 0 1.831413-5.934522 10.670438 10.598856 0 0 0-10.670667-10.598835z"/>
    <path id="path4675" class="middleMoon" style="display:inline;fill:#5e76d0;fill-opacity:1;stroke-width:.290237" d="M78.635463 72.98279a6.1604765 6.1604765 0 0 0-6.160347 6.160863 6.1604765 6.1604765 0 0 0 1.750799 4.295862 22.184221 20.813635 0 0 0-4.628142-.458369 22.184221 20.813635 0 0 0-11.395171 2.967259 20.472754 18.562107 0 0 1 3.506246-.285252 20.472754 18.562107 0 0 1 20.472656 18.562167 20.472754 18.562107 0 0 1-20.472656 18.56219 20.472754 18.562107 0 0 1-1.253153-.0429 22.184221 20.813635 0 0 0 9.142078 1.86396 22.184221 20.813635 0 0 0 22.184171-20.81372 22.184221 20.813635 0 0 0-12.16876-18.570958 6.1604765 6.1604765 0 0 0 5.18263-6.080249 6.1604765 6.1604765 0 0 0-6.160351-6.160863z"/>
    <path id="path4195" class="rightMoon" style="display:inline;fill:#5e76d0;fill-opacity:1;stroke:none;stroke-width:.271338" d="M77.427784 41.605895c-12.238078 1.32658-27.824467 6.77211-23.186507 6.09071 0 0 3.767566.20358 7.527142-.0477 20.599595-.00023 41.744091 19.98466 41.744071 42.91622.00003 22.931575-17.608406 41.521225-39.329374 41.520985-1.041394-.002-2.082289-.0484-3.120223-.13797 5.252482 1.78453 10.787177 2.70208 16.364891 2.71301 27.025636-.00018 48.934096-20.83142 48.933966-46.527916-.00017-25.696239-21.90855-46.527159-48.933966-46.527339Z"/>
    <path id="path87959" style="display:inline;fill:#16346e;fill-opacity:1;stroke:none;stroke-width:.333517" d="M113.40303 56.580055c2.53354 5.662239 5.259 12.34313 5.25946 19.333819-.006 16.15298-9.10722 29.713366-18.944356 32.454146-6.16923 14.52213-22.93904 25.58108-38.65524 23.58017 12.113682 3.2112 12.316612 2.68692 15.35868 2.69741 27.995506.00012 50.582326-20.43307 50.582456-46.184936-.00081-11.37169-5.59063-25.34753-13.601-31.880609z"/>
    <g class="heart">
      <g id="heart" class="innerHeart" style="display:inline;fill:#f11421;fill-opacity:1" transform="translate(39.254922 -81.538525)">
        <path id="rect5152" style="fill:#f11421;fill-opacity:1;stroke-width:.266883" d="M17.64022 179.86288c-1.199417-.002-2.350601.47207-3.200283 1.31863-1.769586 1.76935-1.769586 4.63829 0 6.40766l1.209517 1.20896 6.395111 6.39511 6.395656-6.39511 1.21279-1.21278c1.769008-1.76285 1.774137-4.62594.01145-6.39512-1.769296-1.76922-4.637816-1.76922-6.407113 0l-1.212791 1.21279-1.208971-1.20951c-.846514-.84976-1.995933-1.32841-3.195373-1.33063z"/>
      </g>
    </g>
    <circle style="fill:#16346e;fill-opacity:1;stroke:none;stroke-width:.264583" id="path98721" cx="93.805206" cy="31.112116" r="15.783539"/>
  </g>
</svg>
